<?xml version="1.0" encoding="utf-8"?>
<!-- Generator: Adobe Illustrator 23.0.1, SVG Export Plug-In . SVG Version: 6.00 Build 0)  -->
<svg version="1.1" id="Layer_1" xmlns="http://www.w3.org/2000/svg" xmlns:xlink="http://www.w3.org/1999/xlink" x="0px" y="0px"
	 viewBox="0 0 100 100" style="enable-background:new 0 0 100 100;" xml:space="preserve">
<path d="M75.8,93c1.6,1.6,1.6,4.1,0,5.7c-0.8,0.8-1.8,1.2-2.8,1.2s-2-0.4-2.8-1.2L24.3,52.9c0,0,0,0-0.1-0.1
	c-0.8-0.8-1.2-1.8-1.2-2.8c0-1,0.4-2.1,1.2-2.8c0,0,0,0,0.1-0.1L70.1,1.3c1.6-1.6,4.1-1.6,5.7,0c1.6,1.6,1.6,4.1,0,5.7l-43,43
	L75.8,93z" fill="#ffffff"/>
</svg>
