<?xml version="1.0" encoding="utf-8"?>
<!-- Generator: Adobe Illustrator 23.0.1, SVG Export Plug-In . SVG Version: 6.00 Build 0)  -->
<svg version="1.1" id="Layer_1" xmlns="http://www.w3.org/2000/svg" xmlns:xlink="http://www.w3.org/1999/xlink" x="0px" y="0px"
	 viewBox="0 0 100 100" style="enable-background:new 0 0 100 100;" xml:space="preserve">
<path d="M76.9,50c0,1-0.4,2.1-1.2,2.8c0,0,0,0-0.1,0.1L29.9,98.7c-0.8,0.8-1.8,1.2-2.8,1.2c-1,0-2-0.4-2.8-1.2
	c-1.6-1.6-1.6-4.1,0-5.7l43-43l-43-43c-1.6-1.6-1.6-4.1,0-5.7c1.6-1.6,4.1-1.6,5.7,0l45.8,45.8c0,0,0,0,0.1,0.1
	C76.6,47.9,76.9,49,76.9,50z" fill="#ffffff"/>
</svg>
