<?xml version="1.0" encoding="UTF-8"?>
<svg width="32px" height="25px" viewBox="0 0 32 25" version="1.1" xmlns="http://www.w3.org/2000/svg" xmlns:xlink="http://www.w3.org/1999/xlink">
    <!-- Generator: Sketch 52.6 (67491) - http://www.bohemiancoding.com/sketch -->
    <title>icons/backspace/simple/light</title>
    <desc>Created with Sketch.</desc>
    <g id="--Input-form" stroke="none" stroke-width="1" fill="none" fill-rule="evenodd">
        <g id="xl/input/large/typing/light" transform="translate(-1185.000000, -7.000000)" fill="#FFFFFF">
            <g id="icons/backspace/simple/light" transform="translate(1185.000000, 4.000000)">
                <g id="backspace-simple" transform="translate(0.000000, 3.200000)">
                    <path d="M27.712,0.256 L11.744,0.256 C10.208,0.256 8.736,0.928 7.776,2.112 L0.48,10.88 C-0.128,11.616 -0.128,12.704 0.48,13.44 L7.776,22.208 C8.768,23.392 10.208,24.064 11.744,24.064 L27.712,24.064 C30.08,24.064 32,22.144 32,19.776 L32,4.544 C32,2.176 30.08,0.256 27.712,0.256 Z M30.72,19.776 C30.72,21.44 29.376,22.784 27.712,22.784 L11.744,22.784 C10.592,22.784 9.504,22.272 8.736,21.376 L1.44,12.608 C1.216,12.352 1.216,11.936 1.44,11.68 L8.736,2.912 C9.472,2.016 10.56,1.504 11.744,1.504 L27.712,1.504 C29.376,1.504 30.72,2.848 30.72,4.512 L30.72,19.776 Z M26.976,6.176 L20.992,12.16 L26.976,18.144 C27.232,18.4 27.232,18.784 26.976,19.04 C26.848,19.168 26.688,19.232 26.528,19.232 C26.368,19.232 26.208,19.168 26.08,19.04 L20.096,13.056 L14.112,19.04 C13.984,19.168 13.824,19.232 13.664,19.232 C13.504,19.232 13.344,19.168 13.216,19.04 C12.96,18.784 12.96,18.4 13.216,18.144 L19.168,12.16 L13.184,6.176 C12.928,5.92 12.928,5.536 13.184,5.28 C13.44,5.024 13.824,5.024 14.08,5.28 L20.064,11.264 L26.048,5.28 C26.304,5.024 26.688,5.024 26.944,5.28 C27.2,5.536 27.2,5.92 26.976,6.176 Z" id="Shape" fill-rule="nonzero"></path>
                </g>
            </g>
        </g>
    </g>
</svg>