<?xml version="1.0" encoding="UTF-8"?>
<svg width="30px" height="30px" viewBox="0 0 30 30" version="1.1" xmlns="http://www.w3.org/2000/svg" xmlns:xlink="http://www.w3.org/1999/xlink">
    <!-- Generator: Sketch 52.6 (67491) - http://www.bohemiancoding.com/sketch -->
    <title>icons/cancel/simple/light</title>
    <desc>Created with Sketch.</desc>
    <g id="--Modal" stroke="none" stroke-width="1" fill="none" fill-rule="evenodd">
        <g id="xl/modal/empty" transform="translate(-1817.000000, -60.000000)" fill="#FFFFFF">
            <g id="icons/cancel/simple/light" transform="translate(1816.000000, 59.000000)">
                <g id="cancel-simple" transform="translate(1.600000, 1.600000)">
                    <path d="M28.5219355,27.6006044 C28.8383129,27.9172354 28.895836,28.3777895 28.6369818,28.6368511 C28.3781276,28.8959128 27.9179423,28.8383436 27.6015649,28.5217126 L14.4,15.3095668 L1.19843506,28.492928 C0.882057689,28.8095589 0.421872419,28.8671282 0.163018205,28.6080665 C-0.0958360099,28.3490048 -0.0383128512,27.8884507 0.278064522,27.5718198 L13.4796295,14.3884586 L0.278064522,1.17631276 C-0.00955127177,0.859681819 -0.0670744305,0.399127716 0.191779784,0.140066033 C0.421872419,-0.0902110182 0.882057689,-0.0326417554 1.19843506,0.28398919 L14.4,13.4673504 L27.6015649,0.28398919 C27.9179423,-0.0326417554 28.3781276,-0.0902110182 28.6369818,0.168850665 C28.895836,0.427912347 28.8383129,0.88846645 28.5219355,1.2050974 L15.3203705,14.3884586 L28.5219355,27.6006044 Z" id="Shape" fill-rule="nonzero"></path>
                </g>
            </g>
        </g>
    </g>
</svg>