<?xml version="1.0" encoding="utf-8"?>
<!-- Generator: Adobe Illustrator 23.0.1, SVG Export Plug-In . SVG Version: 6.00 Build 0)  -->
<svg version="1.1" id="Layer_1" xmlns="http://www.w3.org/2000/svg" xmlns:xlink="http://www.w3.org/1999/xlink" x="0px" y="0px"
	 viewBox="0 0 100 100" style="enable-background:new 0 0 100 100;" xml:space="preserve">
<style type="text/css">
	.st0{fill:#FFFFFF;}
</style>
<path class="st0" d="M96,84H4c-2.2,0-4-1.8-4-4s1.8-4,4-4h92c2.2,0,4,1.8,4,4S98.2,84,96,84z M100,50c0-2.2-1.8-4-4-4H4
	c-2.2,0-4,1.8-4,4s1.8,4,4,4h92C98.2,54,100,52.2,100,50z M100,20c0-2.2-1.8-4-4-4H4c-2.2,0-4,1.8-4,4s1.8,4,4,4h92
	C98.2,24,100,22.2,100,20z"/>
</svg>
