<?xml version="1.0" encoding="UTF-8"?>
<svg width="50px" height="50px" viewBox="0 0 50 50" version="1.1" xmlns="http://www.w3.org/2000/svg" xmlns:xlink="http://www.w3.org/1999/xlink">
    <!-- Generator: Sketch 52.5 (67469) - http://www.bohemiancoding.com/sketch -->
    <title>Group 2</title>
    <desc>Created with Sketch.</desc>
    <g id="Category-page---signed-off" stroke="none" stroke-width="1" fill="none" fill-rule="evenodd">
        <g id="XL-" transform="translate(-1034.000000, -2067.000000)" fill="#D8C9AF">
            <g id="load-more" transform="translate(1006.000000, 2067.000000)">
                <g id="Group-2" transform="translate(28.000000, 0.000000)">
                    <g id="Group-5">
                        <path d="M24.5,24 L15.0030706,24 C14.4389178,24 14,24.4477153 14,25 C14,25.5561352 14.44909,26 15.0030706,26 L24.5,26 L24.5,35.4969294 C24.5,36.0610822 24.9477153,36.5 25.5,36.5 C26.0561352,36.5 26.5,36.05091 26.5,35.4969294 L26.5,26 L35.9969294,26 C36.5610822,26 37,25.5522847 37,25 C37,24.4438648 36.55091,24 35.9969294,24 L26.5,24 L26.5,14.5030706 C26.5,13.9389178 26.0522847,13.5 25.5,13.5 C24.9438648,13.5 24.5,13.94909 24.5,14.5030706 L24.5,24 Z M25,50 C11.1928813,50 0,38.8071187 0,25 C0,11.1928813 11.1928813,0 25,0 C38.8071187,0 50,11.1928813 50,25 C50,38.8071187 38.8071187,50 25,50 Z" id="Combined-Shape"></path>
                    </g>
                </g>
            </g>
        </g>
    </g>
</svg>