<?xml version="1.0" encoding="UTF-8"?>
<svg width="28px" height="28px" viewBox="0 0 28 28" version="1.1" xmlns="http://www.w3.org/2000/svg" xmlns:xlink="http://www.w3.org/1999/xlink">
    <!-- Generator: Sketch 52.6 (67491) - http://www.bohemiancoding.com/sketch -->
    <title>icons/search/simple/light</title>
    <desc>Created with Sketch.</desc>
    <g id="--Input-form" stroke="none" stroke-width="1" fill="none" fill-rule="evenodd">
        <g id="xl/input/large/placeholder/light" transform="translate(-1186.000000, -4.000000)" fill="#FFFFFF">
            <g id="icons/search/simple/light" transform="translate(1186.000000, 4.000000)">
                <g id="search-simple">
                    <path d="M27.804,26.992 L18.984,19.096 C21.028,17.08 22.316,14.252 22.316,11.172 C22.316,5.012 17.304,0 11.172,0 C5.012,0 0,5.012 0,11.144 C0,17.304 5.012,22.288 11.144,22.288 C13.776,22.288 16.212,21.364 18.116,19.824 L27.02,27.804 C27.132,27.888 27.272,27.944 27.384,27.944 C27.524,27.944 27.692,27.888 27.804,27.748 C28.056,27.552 28.028,27.188 27.804,26.992 Z M1.12,11.144 C1.12,5.628 5.628,1.12 11.172,1.12 C16.716,1.12 21.196,5.628 21.196,11.144 C21.196,16.66 16.688,21.168 11.172,21.168 C5.656,21.168 1.12,16.688 1.12,11.144 Z" id="Shape" fill-rule="nonzero"></path>
                </g>
            </g>
        </g>
    </g>
</svg>